# xmcd
#
# Track frame offsets:
#	150
#	22824
#	53346
#	74061
#	96356
#	117225
#	137291
#	161075
#	176816
#	190424
#	204115
#
# Disc length: 3345 seconds
#
# Revision: 0
# Processed by: cddbd v1.5.2PL0 Copyright (c) Steve Scherf et al.
# Submitted via: dBpowerAMP V4.0
#
DISCID=910d0f0b
DTITLE=Garrett Mason - Love and Sound
DYEAR=2008
DGENRE=Blues
TTITLE0=And Everything
TTITLE1=Howlin' For My Baby
TTITLE2=Something About You
TTITLE3=Grapple Hold
TTITLE4=Pink Flamingos
TTITLE5=I Wanna Shout
TTITLE6=Old Days
TTITLE7=Shake a Leg
TTITLE8=Hey Little Girl
TTITLE9=Butterface
TTITLE10=Another Old Song
EXTD=
EXTT0=
EXTT1=
EXTT2=
EXTT3=
EXTT4=
EXTT5=
EXTT6=
EXTT7=
EXTT8=
EXTT9=
EXTT10=
PLAYORDER=
